<svg width="400" height="400" xmlns="http://www.w3.org/2000/svg" xmlns:xlink="http://www.w3.org/1999/xlink" version="1.1" baseProfile="full" viewBox="0 0 400 400">
<rect width="400" height="400" x="0" y="0" id="0" fill="none"></rect>
<path d="M40 330.5L360 330.5" fill="none" stroke="#E0E6F1"></path>
<path d="M40 285.5L360 285.5" fill="none" stroke="#E0E6F1"></path>
<path d="M40 240.5L360 240.5" fill="none" stroke="#E0E6F1"></path>
<path d="M40 195.5L360 195.5" fill="none" stroke="#E0E6F1"></path>
<path d="M40 150.5L360 150.5" fill="none" stroke="#E0E6F1"></path>
<path d="M40 105.5L360 105.5" fill="none" stroke="#E0E6F1"></path>
<path d="M40 60.5L360 60.5" fill="none" stroke="#E0E6F1"></path>
<path d="M40 330.5L360 330.5" fill="none" stroke="#6E7079" stroke-linecap="round"></path>
<path d="M40.5 330L40.5 335" fill="none" stroke="#6E7079"></path>
<path d="M85.5 330L85.5 335" fill="none" stroke="#6E7079"></path>
<path d="M131.5 330L131.5 335" fill="none" stroke="#6E7079"></path>
<path d="M177.5 330L177.5 335" fill="none" stroke="#6E7079"></path>
<path d="M223.5 330L223.5 335" fill="none" stroke="#6E7079"></path>
<path d="M268.5 330L268.5 335" fill="none" stroke="#6E7079"></path>
<path d="M314.5 330L314.5 335" fill="none" stroke="#6E7079"></path>
<path d="M360.5 330L360.5 335" fill="none" stroke="#6E7079"></path>
<text dominant-baseline="central" text-anchor="end" style="font-size:12px;font-family:sans-serif;" transform="translate(32 330)" fill="#6E7079">0</text>
<text dominant-baseline="central" text-anchor="end" style="font-size:12px;font-family:sans-serif;" transform="translate(32 285)" fill="#6E7079">5</text>
<text dominant-baseline="central" text-anchor="end" style="font-size:12px;font-family:sans-serif;" transform="translate(32 240)" fill="#6E7079">10</text>
<text dominant-baseline="central" text-anchor="end" style="font-size:12px;font-family:sans-serif;" transform="translate(32 195)" fill="#6E7079">15</text>
<text dominant-baseline="central" text-anchor="end" style="font-size:12px;font-family:sans-serif;" transform="translate(32 150)" fill="#6E7079">20</text>
<text dominant-baseline="central" text-anchor="end" style="font-size:12px;font-family:sans-serif;" transform="translate(32 105)" fill="#6E7079">25</text>
<text dominant-baseline="central" text-anchor="end" style="font-size:12px;font-family:sans-serif;" transform="translate(32 60)" fill="#6E7079">30</text>
<text dominant-baseline="central" text-anchor="middle" style="font-size:12px;font-family:sans-serif;" y="6" transform="translate(62.8571 338)" fill="#6E7079">Mon</text>
<text dominant-baseline="central" text-anchor="middle" style="font-size:12px;font-family:sans-serif;" y="6" transform="translate(108.5714 338)" fill="#6E7079">Tue</text>
<text dominant-baseline="central" text-anchor="middle" style="font-size:12px;font-family:sans-serif;" y="6" transform="translate(154.2857 338)" fill="#6E7079">Wed</text>
<text dominant-baseline="central" text-anchor="middle" style="font-size:12px;font-family:sans-serif;" y="6" transform="translate(200 338)" fill="#6E7079">Thu</text>
<text dominant-baseline="central" text-anchor="middle" style="font-size:12px;font-family:sans-serif;" y="6" transform="translate(245.7143 338)" fill="#6E7079">Fri</text>
<text dominant-baseline="central" text-anchor="middle" style="font-size:12px;font-family:sans-serif;" y="6" transform="translate(291.4286 338)" fill="#6E7079">Sat</text>
<text dominant-baseline="central" text-anchor="middle" style="font-size:12px;font-family:sans-serif;" y="6" transform="translate(337.1429 338)" fill="#6E7079">Sun</text>
<path d="M47.1 330l31.5 0l0 -207l-31.5 0Z" fill="#5470c6" class="zr0-cls-0"></path>
<path d="M92.8 330l31.5 0l0 -216l-31.5 0Z" fill="#5470c6" class="zr0-cls-1"></path>
<path d="M138.5 330l31.5 0l0 -162l-31.5 0Z" fill="#5470c6" class="zr0-cls-2"></path>
<path d="M184.2 330l31.5 0l0 -225l-31.5 0Z" fill="#5470c6" class="zr0-cls-3"></path>
<path d="M229.9 330l31.5 0l0 -243l-31.5 0Z" fill="#5470c6" class="zr0-cls-4"></path>
<path d="M275.7 330l31.5 0l0 -252l-31.5 0Z" fill="#5470c6" class="zr0-cls-5"></path>
<path d="M321.4 330l31.5 0l0 -225l-31.5 0Z" fill="#5470c6" class="zr0-cls-6"></path>
<style ><![CDATA[
.zr0-cls-0 {
animation:zr0-ani-0 1s cubic-bezier(0.65,0,0.35,1) both;
}
.zr0-cls-1 {
animation:zr0-ani-1 1s cubic-bezier(0.65,0,0.35,1) both;
}
.zr0-cls-2 {
animation:zr0-ani-2 1s cubic-bezier(0.65,0,0.35,1) both;
}
.zr0-cls-3 {
animation:zr0-ani-3 1s cubic-bezier(0.65,0,0.35,1) both;
}
.zr0-cls-4 {
animation:zr0-ani-4 1s cubic-bezier(0.65,0,0.35,1) both;
}
.zr0-cls-5 {
animation:zr0-ani-5 1s cubic-bezier(0.65,0,0.35,1) both;
}
.zr0-cls-6 {
animation:zr0-ani-6 1s cubic-bezier(0.65,0,0.35,1) both;
}
@keyframes zr0-ani-0 {
0% {
d:path("M47.1 330l31.5 0l0 0l-31.5 0Z");
}
100% {
d:path("M47.1 330l31.5 0l0 -207l-31.5 0Z");
}
}
@keyframes zr0-ani-1 {
0% {
d:path("M92.8 330l31.5 0l0 0l-31.5 0Z");
}
100% {
d:path("M92.8 330l31.5 0l0 -216l-31.5 0Z");
}
}
@keyframes zr0-ani-2 {
0% {
d:path("M138.5 330l31.5 0l0 0l-31.5 0Z");
}
100% {
d:path("M138.5 330l31.5 0l0 -162l-31.5 0Z");
}
}
@keyframes zr0-ani-3 {
0% {
d:path("M184.2 330l31.5 0l0 0l-31.5 0Z");
}
100% {
d:path("M184.2 330l31.5 0l0 -225l-31.5 0Z");
}
}
@keyframes zr0-ani-4 {
0% {
d:path("M229.9 330l31.5 0l0 0l-31.5 0Z");
}
100% {
d:path("M229.9 330l31.5 0l0 -243l-31.5 0Z");
}
}
@keyframes zr0-ani-5 {
0% {
d:path("M275.7 330l31.5 0l0 0l-31.5 0Z");
}
100% {
d:path("M275.7 330l31.5 0l0 -252l-31.5 0Z");
}
}
@keyframes zr0-ani-6 {
0% {
d:path("M321.4 330l31.5 0l0 0l-31.5 0Z");
}
100% {
d:path("M321.4 330l31.5 0l0 -225l-31.5 0Z");
}
}
]]>

</style>
</svg>